<svg width="800" height="165" viewBox="0 0 800 165" fill="none" xmlns="http://www.w3.org/2000/svg">
<path d="M88.3281 24.7139C88.3281 28.7542 87.6484 32.2848 86.2891 35.3057C84.9297 38.3076 83.0039 40.6016 80.5117 42.1875C78.0195 43.7734 75.112 44.5664 71.7891 44.5664C68.5417 44.5664 65.6624 43.7734 63.1514 42.1875C60.6403 40.5827 58.6862 38.3076 57.2891 35.3623C55.9108 32.3981 55.2028 28.9714 55.165 25.082V22.1084C55.165 18.1436 55.8542 14.6413 57.2324 11.6016C58.6107 8.56185 60.5553 6.23958 63.0664 4.63477C65.5964 3.01107 68.485 2.19922 71.7324 2.19922C75.0365 2.19922 77.944 3.00163 80.4551 4.60645C82.985 6.19238 84.9297 8.50521 86.2891 11.5449C87.6484 14.5658 88.3281 18.0869 88.3281 22.1084V24.7139ZM82.9189 22.0518C82.9189 17.1618 81.9372 13.4141 79.9736 10.8086C78.0101 8.18424 75.263 6.87207 71.7324 6.87207C68.2962 6.87207 65.5869 8.18424 63.6045 10.8086C61.641 13.4141 60.6309 17.0391 60.5742 21.6836V24.7139C60.5742 29.4528 61.5654 33.1816 63.5479 35.9004C65.5492 38.6003 68.2962 39.9502 71.7891 39.9502C75.3008 39.9502 78.0195 38.6758 79.9453 36.127C81.8711 33.5592 82.8623 29.887 82.9189 25.1104V22.0518ZM108.773 36.8916L116.363 13.3574H121.716L110.728 44H106.734L95.6328 13.3574H100.985L108.773 36.8916ZM142.076 44.5664C137.923 44.5664 134.543 43.207 131.938 40.4883C129.332 37.7507 128.029 34.0973 128.029 29.5283V28.5654C128.029 25.5257 128.605 22.8164 129.757 20.4375C130.927 18.0397 132.551 16.1706 134.628 14.8301C136.724 13.4707 138.989 12.791 141.425 12.791C145.409 12.791 148.505 14.1032 150.714 16.7275C152.923 19.3519 154.027 23.109 154.027 27.999V30.1797H133.269C133.344 33.2005 134.222 35.6455 135.902 37.5146C137.602 39.3649 139.754 40.29 142.359 40.29C144.21 40.29 145.777 39.9124 147.061 39.1572C148.344 38.402 149.468 37.4014 150.431 36.1553L153.631 38.6475C151.063 42.5934 147.212 44.5664 142.076 44.5664ZM141.425 17.0957C139.31 17.0957 137.535 17.8698 136.101 19.418C134.666 20.9473 133.778 23.0996 133.438 25.875H148.788V25.4785C148.637 22.8164 147.92 20.7585 146.636 19.3047C145.352 17.832 143.615 17.0957 141.425 17.0957ZM177.928 18.0586C177.135 17.9264 176.276 17.8604 175.351 17.8604C171.914 17.8604 169.583 19.3236 168.355 22.25V44H163.116V13.3574H168.214L168.299 16.8975C170.017 14.1598 172.452 12.791 175.605 12.791C176.625 12.791 177.399 12.9232 177.928 13.1875V18.0586ZM226.21 28.4805H230.883V35.0791H226.21V44H218.025V35.0791H201.118L200.75 29.9248L217.94 2.76562H226.21V28.4805ZM208.906 28.4805H218.025V13.9238L217.487 14.8584L208.906 28.4805ZM239.519 23.7227L241.897 2.76562H265.007V9.59082H248.609L247.59 18.4551C249.535 17.4167 251.602 16.8975 253.792 16.8975C257.719 16.8975 260.797 18.1152 263.024 20.5508C265.252 22.9863 266.366 26.3942 266.366 30.7744C266.366 33.4365 265.8 35.8249 264.667 37.9395C263.553 40.0352 261.948 41.6683 259.853 42.8389C257.757 43.9906 255.284 44.5664 252.433 44.5664C249.94 44.5664 247.628 44.0661 245.494 43.0654C243.361 42.0459 241.671 40.6204 240.425 38.7891C239.198 36.9577 238.546 34.8714 238.471 32.5303H246.57C246.74 34.2484 247.335 35.5889 248.354 36.5518C249.393 37.4958 250.743 37.9678 252.404 37.9678C254.255 37.9678 255.68 37.307 256.681 35.9854C257.681 34.6449 258.182 32.7568 258.182 30.3213C258.182 27.9801 257.606 26.1865 256.454 24.9404C255.302 23.6943 253.669 23.0713 251.555 23.0713C249.61 23.0713 248.034 23.5811 246.825 24.6006L246.032 25.3369L239.519 23.7227ZM302.359 26.9512C302.359 32.653 301.179 37.0143 298.819 40.0352C296.459 43.056 293.004 44.5664 288.454 44.5664C283.961 44.5664 280.524 43.0843 278.146 40.1201C275.767 37.1559 274.549 32.9079 274.492 27.376V19.7861C274.492 14.0277 275.682 9.6569 278.061 6.67383C280.458 3.69076 283.904 2.19922 288.397 2.19922C292.891 2.19922 296.327 3.68132 298.706 6.64551C301.085 9.59082 302.303 13.8294 302.359 19.3613V26.9512ZM294.175 18.625C294.175 15.2077 293.703 12.7249 292.759 11.1768C291.834 9.6097 290.38 8.82617 288.397 8.82617C286.472 8.82617 285.046 9.57194 284.121 11.0635C283.215 12.5361 282.733 14.849 282.677 18.002V28.0273C282.677 31.388 283.13 33.8896 284.036 35.5322C284.961 37.1559 286.434 37.9678 288.454 37.9678C290.455 37.9678 291.9 37.1842 292.787 35.6172C293.674 34.0501 294.137 31.6523 294.175 28.4238V18.625ZM313.374 54.3369L309.098 52.0996L310.117 50.2588C311.382 47.9554 312.034 45.6615 312.071 43.377V37.0332H318.981L318.953 42.6973C318.934 44.793 318.406 46.9076 317.367 49.041C316.329 51.1745 314.998 52.9398 313.374 54.3369ZM355.824 26.9512C355.824 32.653 354.644 37.0143 352.284 40.0352C349.924 43.056 346.469 44.5664 341.919 44.5664C337.425 44.5664 333.989 43.0843 331.61 40.1201C329.231 37.1559 328.014 32.9079 327.957 27.376V19.7861C327.957 14.0277 329.146 9.6569 331.525 6.67383C333.923 3.69076 337.369 2.19922 341.862 2.19922C346.356 2.19922 349.792 3.68132 352.171 6.64551C354.55 9.59082 355.768 13.8294 355.824 19.3613V26.9512ZM347.64 18.625C347.64 15.2077 347.168 12.7249 346.224 11.1768C345.299 9.6097 343.845 8.82617 341.862 8.82617C339.937 8.82617 338.511 9.57194 337.586 11.0635C336.68 12.5361 336.198 14.849 336.142 18.002V28.0273C336.142 31.388 336.595 33.8896 337.501 35.5322C338.426 37.1559 339.899 37.9678 341.919 37.9678C343.92 37.9678 345.365 37.1842 346.252 35.6172C347.139 34.0501 347.602 31.6523 347.64 28.4238V18.625ZM392.129 26.9512C392.129 32.653 390.949 37.0143 388.589 40.0352C386.229 43.056 382.774 44.5664 378.224 44.5664C373.73 44.5664 370.294 43.0843 367.915 40.1201C365.536 37.1559 364.318 32.9079 364.262 27.376V19.7861C364.262 14.0277 365.451 9.6569 367.83 6.67383C370.228 3.69076 373.674 2.19922 378.167 2.19922C382.66 2.19922 386.097 3.68132 388.476 6.64551C390.854 9.59082 392.072 13.8294 392.129 19.3613V26.9512ZM383.944 18.625C383.944 15.2077 383.472 12.7249 382.528 11.1768C381.603 9.6097 380.149 8.82617 378.167 8.82617C376.241 8.82617 374.816 9.57194 373.891 11.0635C372.984 12.5361 372.503 14.849 372.446 18.002V28.0273C372.446 31.388 372.899 33.8896 373.806 35.5322C374.731 37.1559 376.203 37.9678 378.224 37.9678C380.225 37.9678 381.669 37.1842 382.557 35.6172C383.444 34.0501 383.907 31.6523 383.944 28.4238V18.625ZM428.434 26.9512C428.434 32.653 427.254 37.0143 424.894 40.0352C422.534 43.056 419.078 44.5664 414.528 44.5664C410.035 44.5664 406.599 43.0843 404.22 40.1201C401.841 37.1559 400.623 32.9079 400.566 27.376V19.7861C400.566 14.0277 401.756 9.6569 404.135 6.67383C406.533 3.69076 409.978 2.19922 414.472 2.19922C418.965 2.19922 422.401 3.68132 424.78 6.64551C427.159 9.59082 428.377 13.8294 428.434 19.3613V26.9512ZM420.249 18.625C420.249 15.2077 419.777 12.7249 418.833 11.1768C417.908 9.6097 416.454 8.82617 414.472 8.82617C412.546 8.82617 411.12 9.57194 410.195 11.0635C409.289 12.5361 408.808 14.849 408.751 18.002V28.0273C408.751 31.388 409.204 33.8896 410.11 35.5322C411.035 37.1559 412.508 37.9678 414.528 37.9678C416.53 37.9678 417.974 37.1842 418.861 35.6172C419.749 34.0501 420.211 31.6523 420.249 28.4238V18.625ZM481.417 29.0186C481.417 33.682 480.35 37.4391 478.217 40.29C476.083 43.141 473.195 44.5664 469.551 44.5664C465.831 44.5664 462.905 43.3864 460.771 41.0264V55.7812H455.532V13.3574H460.318L460.573 16.7559C462.707 14.1126 465.671 12.791 469.466 12.791C473.147 12.791 476.055 14.1787 478.188 16.9541C480.341 19.7295 481.417 23.5905 481.417 28.5371V29.0186ZM476.178 28.4238C476.178 24.9688 475.441 22.2406 473.969 20.2393C472.496 18.238 470.476 17.2373 467.908 17.2373C464.736 17.2373 462.357 18.6439 460.771 21.457V36.0986C462.339 38.8929 464.736 40.29 467.965 40.29C470.476 40.29 472.468 39.2988 473.94 37.3164C475.432 35.3151 476.178 32.3509 476.178 28.4238ZM503.816 44.5664C499.663 44.5664 496.283 43.207 493.678 40.4883C491.072 37.7507 489.77 34.0973 489.77 29.5283V28.5654C489.77 25.5257 490.345 22.8164 491.497 20.4375C492.668 18.0397 494.291 16.1706 496.368 14.8301C498.464 13.4707 500.729 12.791 503.165 12.791C507.149 12.791 510.245 14.1032 512.454 16.7275C514.663 19.3519 515.768 23.109 515.768 27.999V30.1797H495.009C495.084 33.2005 495.962 35.6455 497.643 37.5146C499.342 39.3649 501.494 40.29 504.1 40.29C505.95 40.29 507.517 39.9124 508.801 39.1572C510.085 38.402 511.208 37.4014 512.171 36.1553L515.371 38.6475C512.803 42.5934 508.952 44.5664 503.816 44.5664ZM503.165 17.0957C501.05 17.0957 499.276 17.8698 497.841 19.418C496.406 20.9473 495.519 23.0996 495.179 25.875H510.528V25.4785C510.377 22.8164 509.66 20.7585 508.376 19.3047C507.092 17.832 505.355 17.0957 503.165 17.0957ZM523.469 28.3955C523.469 25.3936 524.054 22.6937 525.225 20.2959C526.414 17.8981 528.057 16.0479 530.152 14.7451C532.267 13.4424 534.674 12.791 537.374 12.791C541.547 12.791 544.917 14.2354 547.484 17.124C550.071 20.0127 551.364 23.8548 551.364 28.6504V29.0186C551.364 32.0016 550.788 34.6826 549.637 37.0615C548.504 39.4215 546.871 41.2624 544.737 42.584C542.623 43.9056 540.187 44.5664 537.431 44.5664C533.277 44.5664 529.907 43.1221 527.32 40.2334C524.753 37.3447 523.469 33.5215 523.469 28.7637V28.3955ZM528.736 29.0186C528.736 32.417 529.52 35.1452 531.087 37.2031C532.673 39.2611 534.787 40.29 537.431 40.29C540.093 40.29 542.207 39.2516 543.774 37.1748C545.341 35.0791 546.125 32.1527 546.125 28.3955C546.125 25.0348 545.323 22.3161 543.718 20.2393C542.132 18.1436 540.017 17.0957 537.374 17.0957C534.787 17.0957 532.701 18.1247 531.115 20.1826C529.529 22.2406 528.736 25.1859 528.736 29.0186ZM586.819 29.0186C586.819 33.682 585.753 37.4391 583.619 40.29C581.486 43.141 578.597 44.5664 574.953 44.5664C571.234 44.5664 568.307 43.3864 566.174 41.0264V55.7812H560.935V13.3574H565.721L565.976 16.7559C568.109 14.1126 571.073 12.791 574.868 12.791C578.55 12.791 581.457 14.1787 583.591 16.9541C585.743 19.7295 586.819 23.5905 586.819 28.5371V29.0186ZM581.58 28.4238C581.58 24.9688 580.844 22.2406 579.371 20.2393C577.898 18.238 575.878 17.2373 573.311 17.2373C570.139 17.2373 567.76 18.6439 566.174 21.457V36.0986C567.741 38.8929 570.139 40.29 573.367 40.29C575.878 40.29 577.87 39.2988 579.343 37.3164C580.834 35.3151 581.58 32.3509 581.58 28.4238ZM602.195 44H596.956V0.5H602.195V44ZM626.322 44.5664C622.169 44.5664 618.789 43.207 616.184 40.4883C613.578 37.7507 612.275 34.0973 612.275 29.5283V28.5654C612.275 25.5257 612.851 22.8164 614.003 20.4375C615.174 18.0397 616.797 16.1706 618.874 14.8301C620.97 13.4707 623.235 12.791 625.671 12.791C629.655 12.791 632.751 14.1032 634.96 16.7275C637.169 19.3519 638.273 23.109 638.273 27.999V30.1797H617.515C617.59 33.2005 618.468 35.6455 620.148 37.5146C621.848 39.3649 624 40.29 626.605 40.29C628.456 40.29 630.023 39.9124 631.307 39.1572C632.59 38.402 633.714 37.4014 634.677 36.1553L637.877 38.6475C635.309 42.5934 631.458 44.5664 626.322 44.5664ZM625.671 17.0957C623.556 17.0957 621.782 17.8698 620.347 19.418C618.912 20.9473 618.024 23.0996 617.685 25.875H633.034V25.4785C632.883 22.8164 632.166 20.7585 630.882 19.3047C629.598 17.832 627.861 17.0957 625.671 17.0957ZM683.667 44C683.365 43.3958 683.119 42.3197 682.931 40.7715C680.495 43.3014 677.588 44.5664 674.208 44.5664C671.187 44.5664 668.704 43.7168 666.76 42.0176C664.834 40.2995 663.871 38.1283 663.871 35.5039C663.871 32.3132 665.079 29.8398 667.496 28.084C669.932 26.3092 673.349 25.4219 677.748 25.4219H682.846V23.0146C682.846 21.1833 682.298 19.7295 681.203 18.6533C680.108 17.5583 678.494 17.0107 676.36 17.0107C674.491 17.0107 672.924 17.4827 671.659 18.4268C670.394 19.3708 669.762 20.513 669.762 21.8535H664.494C664.494 20.3242 665.032 18.8516 666.108 17.4355C667.203 16.0007 668.676 14.8678 670.526 14.0371C672.396 13.2064 674.444 12.791 676.672 12.791C680.202 12.791 682.968 13.6784 684.97 15.4531C686.971 17.209 688.009 19.6351 688.085 22.7314V36.835C688.085 39.6481 688.444 41.8854 689.161 43.5469V44H683.667ZM674.973 40.0068C676.615 40.0068 678.173 39.582 679.646 38.7324C681.118 37.8828 682.185 36.7783 682.846 35.4189V29.1318H678.739C672.32 29.1318 669.11 31.0104 669.11 34.7676C669.11 36.4102 669.658 37.694 670.753 38.6191C671.848 39.5443 673.255 40.0068 674.973 40.0068ZM714.109 18.0586C713.316 17.9264 712.457 17.8604 711.532 17.8604C708.096 17.8604 705.764 19.3236 704.537 22.25V44H699.298V13.3574H704.396L704.48 16.8975C706.199 14.1598 708.634 12.791 711.787 12.791C712.807 12.791 713.581 12.9232 714.109 13.1875V18.0586ZM734.102 44.5664C729.948 44.5664 726.568 43.207 723.963 40.4883C721.357 37.7507 720.055 34.0973 720.055 29.5283V28.5654C720.055 25.5257 720.631 22.8164 721.782 20.4375C722.953 18.0397 724.576 16.1706 726.653 14.8301C728.749 13.4707 731.015 12.791 733.45 12.791C737.434 12.791 740.53 14.1032 742.739 16.7275C744.948 19.3519 746.053 23.109 746.053 27.999V30.1797H725.294C725.369 33.2005 726.247 35.6455 727.928 37.5146C729.627 39.3649 731.779 40.29 734.385 40.29C736.235 40.29 737.802 39.9124 739.086 39.1572C740.37 38.402 741.493 37.4014 742.456 36.1553L745.656 38.6475C743.089 42.5934 739.237 44.5664 734.102 44.5664ZM733.45 17.0957C731.336 17.0957 729.561 17.8698 728.126 19.418C726.691 20.9473 725.804 23.0996 725.464 25.875H740.813V25.4785C740.662 22.8164 739.945 20.7585 738.661 19.3047C737.377 17.832 735.64 17.0957 733.45 17.0957ZM20.5342 98C20.2321 97.3958 19.9867 96.3197 19.7979 94.7715C17.3623 97.3014 14.4548 98.5664 11.0752 98.5664C8.05436 98.5664 5.57161 97.7168 3.62695 96.0176C1.70117 94.2995 0.738281 92.1283 0.738281 89.5039C0.738281 86.3132 1.94661 83.8398 4.36328 82.084C6.79883 80.3092 10.2161 79.4219 14.6152 79.4219H19.7129V77.0146C19.7129 75.1833 19.1654 73.7295 18.0703 72.6533C16.9753 71.5583 15.361 71.0107 13.2275 71.0107C11.3584 71.0107 9.79134 71.4827 8.52637 72.4268C7.26139 73.3708 6.62891 74.513 6.62891 75.8535H1.36133C1.36133 74.3242 1.89941 72.8516 2.97559 71.4355C4.07064 70.0007 5.54329 68.8678 7.39355 68.0371C9.2627 67.2064 11.3112 66.791 13.5391 66.791C17.0697 66.791 19.8356 67.6784 21.8369 69.4531C23.8382 71.209 24.8766 73.6351 24.9521 76.7314V90.835C24.9521 93.6481 25.3109 95.8854 26.0283 97.5469V98H20.5342ZM11.8398 94.0068C13.4824 94.0068 15.04 93.582 16.5127 92.7324C17.9854 91.8828 19.0521 90.7783 19.7129 89.4189V83.1318H15.6064C9.18717 83.1318 5.97754 85.0104 5.97754 88.7676C5.97754 90.4102 6.52507 91.694 7.62012 92.6191C8.71517 93.5443 10.1217 94.0068 11.8398 94.0068ZM41.8574 98H36.6182V54.5H41.8574V98ZM68.0801 72.0586C67.2871 71.9264 66.4281 71.8604 65.5029 71.8604C62.0667 71.8604 59.735 73.3236 58.5078 76.25V98H53.2686V67.3574H58.3662L58.4512 70.8975C60.1693 68.1598 62.6048 66.791 65.7578 66.791C66.7773 66.791 67.5514 66.9232 68.0801 67.1875V72.0586ZM88.0723 98.5664C83.9186 98.5664 80.5391 97.207 77.9336 94.4883C75.3281 91.7507 74.0254 88.0973 74.0254 83.5283V82.5654C74.0254 79.5257 74.6012 76.8164 75.7529 74.4375C76.9235 72.0397 78.5472 70.1706 80.624 68.8301C82.7197 67.4707 84.9854 66.791 87.4209 66.791C91.4046 66.791 94.501 68.1032 96.71 70.7275C98.9189 73.3519 100.023 77.109 100.023 81.999V84.1797H79.2646C79.3402 87.2005 80.2181 89.6455 81.8984 91.5146C83.5977 93.3649 85.75 94.29 88.3555 94.29C90.2057 94.29 91.7728 93.9124 93.0566 93.1572C94.3405 92.402 95.4639 91.4014 96.4268 90.1553L99.627 92.6475C97.0592 96.5934 93.2077 98.5664 88.0723 98.5664ZM87.4209 71.0957C85.3063 71.0957 83.5316 71.8698 82.0967 73.418C80.6618 74.9473 79.7744 77.0996 79.4346 79.875H94.7842V79.4785C94.6331 76.8164 93.9157 74.7585 92.6318 73.3047C91.348 71.832 89.611 71.0957 87.4209 71.0957ZM128.03 98C127.728 97.3958 127.483 96.3197 127.294 94.7715C124.858 97.3014 121.951 98.5664 118.571 98.5664C115.55 98.5664 113.068 97.7168 111.123 96.0176C109.197 94.2995 108.234 92.1283 108.234 89.5039C108.234 86.3132 109.443 83.8398 111.859 82.084C114.295 80.3092 117.712 79.4219 122.111 79.4219H127.209V77.0146C127.209 75.1833 126.661 73.7295 125.566 72.6533C124.471 71.5583 122.857 71.0107 120.724 71.0107C118.854 71.0107 117.287 71.4827 116.022 72.4268C114.757 73.3708 114.125 74.513 114.125 75.8535H108.857C108.857 74.3242 109.396 72.8516 110.472 71.4355C111.567 70.0007 113.039 68.8678 114.89 68.0371C116.759 67.2064 118.807 66.791 121.035 66.791C124.566 66.791 127.332 67.6784 129.333 69.4531C131.334 71.209 132.373 73.6351 132.448 76.7314V90.835C132.448 93.6481 132.807 95.8854 133.524 97.5469V98H128.03ZM119.336 94.0068C120.979 94.0068 122.536 93.582 124.009 92.7324C125.481 91.8828 126.548 90.7783 127.209 89.4189V83.1318H123.103C116.683 83.1318 113.474 85.0104 113.474 88.7676C113.474 90.4102 114.021 91.694 115.116 92.6191C116.211 93.5443 117.618 94.0068 119.336 94.0068ZM142.387 82.4238C142.387 77.7227 143.501 73.9466 145.729 71.0957C147.956 68.2259 150.873 66.791 154.479 66.791C158.067 66.791 160.908 68.0182 163.004 70.4727V54.5H168.243V98H163.429L163.174 94.7148C161.078 97.2826 158.161 98.5664 154.423 98.5664C150.873 98.5664 147.975 97.1126 145.729 94.2051C143.501 91.2975 142.387 87.5026 142.387 82.8203V82.4238ZM147.626 83.0186C147.626 86.4925 148.343 89.2113 149.778 91.1748C151.213 93.1383 153.196 94.1201 155.726 94.1201C159.049 94.1201 161.475 92.6286 163.004 89.6455V75.5703C161.437 72.6816 159.03 71.2373 155.782 71.2373C153.215 71.2373 151.213 72.2285 149.778 74.2109C148.343 76.1934 147.626 79.1292 147.626 83.0186ZM189.425 90.3252L196.562 67.3574H202.169L189.85 102.729C187.943 107.827 184.912 110.376 180.759 110.376L179.768 110.291L177.813 109.923V105.675L179.229 105.788C181.004 105.788 182.382 105.429 183.364 104.712C184.365 103.994 185.186 102.682 185.828 100.775L186.989 97.6602L176.058 67.3574H181.778L189.425 90.3252ZM246.175 94.9697C244.136 97.3675 241.143 98.5664 237.197 98.5664C233.931 98.5664 231.439 97.6224 229.721 95.7344C228.021 93.8275 227.162 91.0143 227.144 87.2949V67.3574H232.383V87.1533C232.383 91.7979 234.271 94.1201 238.047 94.1201C242.049 94.1201 244.712 92.6286 246.033 89.6455V67.3574H251.272V98H246.288L246.175 94.9697ZM280.101 89.8721C280.101 88.4561 279.562 87.361 278.486 86.5869C277.429 85.7939 275.569 85.1143 272.907 84.5479C270.264 83.9814 268.159 83.3018 266.592 82.5088C265.044 81.7158 263.892 80.7718 263.137 79.6768C262.4 78.5817 262.032 77.279 262.032 75.7686C262.032 73.2575 263.09 71.1335 265.204 69.3965C267.338 67.6595 270.056 66.791 273.36 66.791C276.834 66.791 279.647 67.6878 281.8 69.4814C283.971 71.2751 285.057 73.569 285.057 76.3633H279.789C279.789 74.9284 279.175 73.6917 277.948 72.6533C276.74 71.6149 275.211 71.0957 273.36 71.0957C271.453 71.0957 269.962 71.5111 268.886 72.3418C267.81 73.1725 267.271 74.2581 267.271 75.5986C267.271 76.8636 267.772 77.8171 268.772 78.459C269.773 79.1009 271.576 79.7145 274.182 80.2998C276.806 80.8851 278.93 81.5837 280.554 82.3955C282.177 83.2074 283.376 84.1891 284.15 85.3408C284.943 86.4736 285.34 87.8613 285.34 89.5039C285.34 92.2415 284.245 94.4411 282.055 96.1025C279.865 97.7451 277.023 98.5664 273.53 98.5664C271.076 98.5664 268.905 98.1322 267.017 97.2637C265.129 96.3952 263.646 95.1868 262.57 93.6387C261.513 92.0716 260.984 90.3818 260.984 88.5693H266.224C266.318 90.3252 267.017 91.7223 268.319 92.7607C269.641 93.7803 271.378 94.29 273.53 94.29C275.513 94.29 277.099 93.8936 278.288 93.1006C279.496 92.2887 280.101 91.2126 280.101 89.8721ZM300.857 98H295.618V67.3574H300.857V98ZM295.193 59.2295C295.193 58.3799 295.448 57.6624 295.958 57.0771C296.487 56.4919 297.261 56.1992 298.28 56.1992C299.3 56.1992 300.074 56.4919 300.603 57.0771C301.131 57.6624 301.396 58.3799 301.396 59.2295C301.396 60.0791 301.131 60.7871 300.603 61.3535C300.074 61.9199 299.3 62.2031 298.28 62.2031C297.261 62.2031 296.487 61.9199 295.958 61.3535C295.448 60.7871 295.193 60.0791 295.193 59.2295ZM317.225 67.3574L317.395 71.209C319.736 68.2637 322.794 66.791 326.57 66.791C333.046 66.791 336.312 70.4443 336.369 77.751V98H331.13V77.7227C331.111 75.5137 330.601 73.8805 329.601 72.8232C328.619 71.766 327.08 71.2373 324.984 71.2373C323.285 71.2373 321.794 71.6904 320.51 72.5967C319.226 73.5029 318.225 74.6924 317.508 76.165V98H312.269V67.3574H317.225ZM346.024 82.4238C346.024 77.6471 347.129 73.8522 349.338 71.0391C351.547 68.207 354.473 66.791 358.117 66.791C361.855 66.791 364.772 68.1126 366.868 70.7559L367.123 67.3574H371.909V97.2637C371.909 101.229 370.729 104.353 368.369 106.638C366.028 108.922 362.875 110.064 358.91 110.064C356.701 110.064 354.539 109.592 352.425 108.648C350.31 107.704 348.696 106.411 347.582 104.769L350.301 101.625C352.548 104.4 355.295 105.788 358.542 105.788C361.091 105.788 363.073 105.071 364.489 103.636C365.924 102.201 366.642 100.181 366.642 97.5752V94.9414C364.546 97.3581 361.686 98.5664 358.061 98.5664C354.473 98.5664 351.566 97.1221 349.338 94.2334C347.129 91.3447 346.024 87.4082 346.024 82.4238ZM351.292 83.0186C351.292 86.4736 352 89.1924 353.416 91.1748C354.832 93.1383 356.814 94.1201 359.363 94.1201C362.667 94.1201 365.093 92.6191 366.642 89.6172V75.627C365.037 72.7005 362.63 71.2373 359.42 71.2373C356.871 71.2373 354.879 72.2285 353.444 74.2109C352.009 76.1934 351.292 79.1292 351.292 83.0186ZM409.939 85.001L410.732 90.4385L411.894 85.5391L420.05 56.7656H424.638L432.596 85.5391L433.729 90.5234L434.606 84.9727L441.007 56.7656H446.473L436.476 98H431.52L423.023 67.9521L422.372 64.8086L421.721 67.9521L412.913 98H407.957L397.988 56.7656H403.426L409.939 85.001ZM466.521 98.5664C462.368 98.5664 458.988 97.207 456.383 94.4883C453.777 91.7507 452.475 88.0973 452.475 83.5283V82.5654C452.475 79.5257 453.05 76.8164 454.202 74.4375C455.373 72.0397 456.996 70.1706 459.073 68.8301C461.169 67.4707 463.435 66.791 465.87 66.791C469.854 66.791 472.95 68.1032 475.159 70.7275C477.368 73.3519 478.473 77.109 478.473 81.999V84.1797H457.714C457.789 87.2005 458.667 89.6455 460.348 91.5146C462.047 93.3649 464.199 94.29 466.805 94.29C468.655 94.29 470.222 93.9124 471.506 93.1572C472.79 92.402 473.913 91.4014 474.876 90.1553L478.076 92.6475C475.508 96.5934 471.657 98.5664 466.521 98.5664ZM465.87 71.0957C463.756 71.0957 461.981 71.8698 460.546 73.418C459.111 74.9473 458.224 77.0996 457.884 79.875H473.233V79.4785C473.082 76.8164 472.365 74.7585 471.081 73.3047C469.797 71.832 468.06 71.0957 465.87 71.0957ZM506.479 98C506.177 97.3958 505.932 96.3197 505.743 94.7715C503.308 97.3014 500.4 98.5664 497.021 98.5664C494 98.5664 491.517 97.7168 489.572 96.0176C487.646 94.2995 486.684 92.1283 486.684 89.5039C486.684 86.3132 487.892 83.8398 490.309 82.084C492.744 80.3092 496.161 79.4219 500.561 79.4219H505.658V77.0146C505.658 75.1833 505.111 73.7295 504.016 72.6533C502.921 71.5583 501.306 71.0107 499.173 71.0107C497.304 71.0107 495.737 71.4827 494.472 72.4268C493.207 73.3708 492.574 74.513 492.574 75.8535H487.307C487.307 74.3242 487.845 72.8516 488.921 71.4355C490.016 70.0007 491.489 68.8678 493.339 68.0371C495.208 67.2064 497.257 66.791 499.484 66.791C503.015 66.791 505.781 67.6784 507.782 69.4531C509.784 71.209 510.822 73.6351 510.897 76.7314V90.835C510.897 93.6481 511.256 95.8854 511.974 97.5469V98H506.479ZM497.785 94.0068C499.428 94.0068 500.985 93.582 502.458 92.7324C503.931 91.8828 504.997 90.7783 505.658 89.4189V83.1318H501.552C495.132 83.1318 491.923 85.0104 491.923 88.7676C491.923 90.4102 492.47 91.694 493.565 92.6191C494.66 93.5443 496.067 94.0068 497.785 94.0068ZM527.803 98H522.563V54.5H527.803V98ZM546.322 59.9375V67.3574H552.043V71.4072H546.322V90.4102C546.322 91.6374 546.577 92.5625 547.087 93.1855C547.597 93.7897 548.465 94.0918 549.692 94.0918C550.297 94.0918 551.127 93.9785 552.185 93.752V98C550.806 98.3776 549.466 98.5664 548.163 98.5664C545.822 98.5664 544.057 97.8584 542.867 96.4424C541.678 95.0264 541.083 93.0156 541.083 90.4102V71.4072H535.504V67.3574H541.083V59.9375H546.322ZM566.428 71.0674C568.75 68.2165 571.771 66.791 575.49 66.791C581.966 66.791 585.232 70.4443 585.289 77.751V98H580.05V77.7227C580.031 75.5137 579.521 73.8805 578.521 72.8232C577.539 71.766 576 71.2373 573.904 71.2373C572.205 71.2373 570.714 71.6904 569.43 72.5967C568.146 73.5029 567.145 74.6924 566.428 76.165V98H561.188V54.5H566.428V71.0674ZM598.711 98V71.4072H593.868V67.3574H598.711V64.2139C598.711 60.9287 599.589 58.3893 601.345 56.5957C603.101 54.8021 605.583 53.9053 608.793 53.9053C610.001 53.9053 611.2 54.0658 612.39 54.3867L612.106 58.6348C611.219 58.4648 610.275 58.3799 609.274 58.3799C607.575 58.3799 606.263 58.8802 605.338 59.8809C604.413 60.8626 603.95 62.2786 603.95 64.1289V67.3574H610.492V71.4072H603.95V98H598.711ZM634.109 72.0586C633.316 71.9264 632.457 71.8604 631.532 71.8604C628.096 71.8604 625.764 73.3236 624.537 76.25V98H619.298V67.3574H624.396L624.48 70.8975C626.199 68.1598 628.634 66.791 631.787 66.791C632.807 66.791 633.581 66.9232 634.109 67.1875V72.0586ZM639.998 82.3955C639.998 79.3936 640.583 76.6937 641.754 74.2959C642.943 71.8981 644.586 70.0479 646.682 68.7451C648.796 67.4424 651.203 66.791 653.903 66.791C658.076 66.791 661.446 68.2354 664.014 71.124C666.6 74.0127 667.894 77.8548 667.894 82.6504V83.0186C667.894 86.0016 667.318 88.6826 666.166 91.0615C665.033 93.4215 663.4 95.2624 661.267 96.584C659.152 97.9056 656.716 98.5664 653.96 98.5664C649.806 98.5664 646.436 97.1221 643.85 94.2334C641.282 91.3447 639.998 87.5215 639.998 82.7637V82.3955ZM645.266 83.0186C645.266 86.417 646.049 89.1452 647.616 91.2031C649.202 93.2611 651.317 94.29 653.96 94.29C656.622 94.29 658.737 93.2516 660.304 91.1748C661.871 89.0791 662.654 86.1527 662.654 82.3955C662.654 79.0348 661.852 76.3161 660.247 74.2393C658.661 72.1436 656.547 71.0957 653.903 71.0957C651.317 71.0957 649.23 72.1247 647.645 74.1826C646.059 76.2406 645.266 79.1859 645.266 83.0186ZM682.42 67.3574L682.59 71.209C684.931 68.2637 687.99 66.791 691.766 66.791C698.242 66.791 701.508 70.4443 701.564 77.751V98H696.325V77.7227C696.306 75.5137 695.797 73.8805 694.796 72.8232C693.814 71.766 692.275 71.2373 690.18 71.2373C688.48 71.2373 686.989 71.6904 685.705 72.5967C684.421 73.5029 683.421 74.6924 682.703 76.165V98H677.464V67.3574H682.42ZM719.574 59.9375V67.3574H725.295V71.4072H719.574V90.4102C719.574 91.6374 719.829 92.5625 720.339 93.1855C720.849 93.7897 721.717 94.0918 722.944 94.0918C723.549 94.0918 724.379 93.9785 725.437 93.752V98C724.058 98.3776 722.718 98.5664 721.415 98.5664C719.074 98.5664 717.309 97.8584 716.119 96.4424C714.93 95.0264 714.335 93.0156 714.335 90.4102V71.4072H708.756V67.3574H714.335V59.9375H719.574ZM758.936 59.9375V67.3574H764.656V71.4072H758.936V90.4102C758.936 91.6374 759.19 92.5625 759.7 93.1855C760.21 93.7897 761.078 94.0918 762.306 94.0918C762.91 94.0918 763.741 93.9785 764.798 93.752V98C763.42 98.3776 762.079 98.5664 760.776 98.5664C758.435 98.5664 756.67 97.8584 755.48 96.4424C754.291 95.0264 753.696 93.0156 753.696 90.4102V71.4072H748.117V67.3574H753.696V59.9375H758.936ZM771.848 82.3955C771.848 79.3936 772.433 76.6937 773.604 74.2959C774.793 71.8981 776.436 70.0479 778.531 68.7451C780.646 67.4424 783.053 66.791 785.753 66.791C789.925 66.791 793.296 68.2354 795.863 71.124C798.45 74.0127 799.743 77.8548 799.743 82.6504V83.0186C799.743 86.0016 799.167 88.6826 798.016 91.0615C796.883 93.4215 795.25 95.2624 793.116 96.584C791.002 97.9056 788.566 98.5664 785.81 98.5664C781.656 98.5664 778.286 97.1221 775.699 94.2334C773.132 91.3447 771.848 87.5215 771.848 82.7637V82.3955ZM777.115 83.0186C777.115 86.417 777.899 89.1452 779.466 91.2031C781.052 93.2611 783.166 94.29 785.81 94.29C788.472 94.29 790.586 93.2516 792.153 91.1748C793.72 89.0791 794.504 86.1527 794.504 82.3955C794.504 79.0348 793.701 76.3161 792.097 74.2393C790.511 72.1436 788.396 71.0957 785.753 71.0957C783.166 71.0957 781.08 72.1247 779.494 74.1826C777.908 76.2406 777.115 79.1859 777.115 83.0186ZM58.5635 152.566C54.4098 152.566 51.0303 151.207 48.4248 148.488C45.8193 145.751 44.5166 142.097 44.5166 137.528V136.565C44.5166 133.526 45.0924 130.816 46.2441 128.438C47.4147 126.04 49.0384 124.171 51.1152 122.83C53.2109 121.471 55.4766 120.791 57.9121 120.791C61.8958 120.791 64.9922 122.103 67.2012 124.728C69.4102 127.352 70.5146 131.109 70.5146 135.999V138.18H49.7559C49.8314 141.201 50.7093 143.646 52.3896 145.515C54.0889 147.365 56.2412 148.29 58.8467 148.29C60.6969 148.29 62.264 147.912 63.5479 147.157C64.8317 146.402 65.9551 145.401 66.918 144.155L70.1182 146.647C67.5505 150.593 63.6989 152.566 58.5635 152.566ZM57.9121 125.096C55.7975 125.096 54.0228 125.87 52.5879 127.418C51.153 128.947 50.2656 131.1 49.9258 133.875H65.2754V133.479C65.1243 130.816 64.4069 128.758 63.123 127.305C61.8392 125.832 60.1022 125.096 57.9121 125.096ZM98.5215 152C98.2194 151.396 97.974 150.32 97.7852 148.771C95.3496 151.301 92.4421 152.566 89.0625 152.566C86.0417 152.566 83.5589 151.717 81.6143 150.018C79.6885 148.299 78.7256 146.128 78.7256 143.504C78.7256 140.313 79.9339 137.84 82.3506 136.084C84.7861 134.309 88.2035 133.422 92.6025 133.422H97.7002V131.015C97.7002 129.183 97.1527 127.729 96.0576 126.653C94.9626 125.558 93.3483 125.011 91.2148 125.011C89.3457 125.011 87.7786 125.483 86.5137 126.427C85.2487 127.371 84.6162 128.513 84.6162 129.854H79.3486C79.3486 128.324 79.8867 126.852 80.9629 125.436C82.0579 124.001 83.5306 122.868 85.3809 122.037C87.25 121.206 89.2985 120.791 91.5264 120.791C95.057 120.791 97.8229 121.678 99.8242 123.453C101.826 125.209 102.864 127.635 102.939 130.731V144.835C102.939 147.648 103.298 149.885 104.016 151.547V152H98.5215ZM89.8271 148.007C91.4697 148.007 93.0273 147.582 94.5 146.732C95.9727 145.883 97.0394 144.778 97.7002 143.419V137.132H93.5938C87.1745 137.132 83.9648 139.01 83.9648 142.768C83.9648 144.41 84.5124 145.694 85.6074 146.619C86.7025 147.544 88.109 148.007 89.8271 148.007ZM128.964 126.059C128.171 125.926 127.312 125.86 126.387 125.86C122.951 125.86 120.619 127.324 119.392 130.25V152H114.152V121.357H119.25L119.335 124.897C121.053 122.16 123.489 120.791 126.642 120.791C127.661 120.791 128.435 120.923 128.964 121.188V126.059ZM141.763 121.357L141.933 125.209C144.274 122.264 147.332 120.791 151.108 120.791C157.584 120.791 160.851 124.444 160.907 131.751V152H155.668V131.723C155.649 129.514 155.139 127.881 154.139 126.823C153.157 125.766 151.618 125.237 149.522 125.237C147.823 125.237 146.332 125.69 145.048 126.597C143.764 127.503 142.763 128.692 142.046 130.165V152H136.807V121.357H141.763ZM194.123 121.357L194.265 124.756C196.511 122.113 199.542 120.791 203.355 120.791C207.641 120.791 210.558 122.434 212.106 125.719C213.126 124.246 214.448 123.057 216.071 122.15C217.714 121.244 219.649 120.791 221.877 120.791C228.598 120.791 232.016 124.35 232.129 131.468V152H226.89V131.779C226.89 129.589 226.389 127.956 225.389 126.88C224.388 125.785 222.708 125.237 220.348 125.237C218.403 125.237 216.789 125.823 215.505 126.993C214.221 128.145 213.475 129.702 213.268 131.666V152H208V131.921C208 127.465 205.819 125.237 201.458 125.237C198.022 125.237 195.671 126.701 194.406 129.627V152H189.167V121.357H194.123ZM241.671 136.396C241.671 133.394 242.256 130.694 243.427 128.296C244.616 125.898 246.259 124.048 248.354 122.745C250.469 121.442 252.876 120.791 255.576 120.791C259.749 120.791 263.119 122.235 265.687 125.124C268.273 128.013 269.566 131.855 269.566 136.65V137.019C269.566 140.002 268.991 142.683 267.839 145.062C266.706 147.422 265.073 149.262 262.939 150.584C260.825 151.906 258.389 152.566 255.633 152.566C251.479 152.566 248.109 151.122 245.522 148.233C242.955 145.345 241.671 141.521 241.671 136.764V136.396ZM246.938 137.019C246.938 140.417 247.722 143.145 249.289 145.203C250.875 147.261 252.99 148.29 255.633 148.29C258.295 148.29 260.41 147.252 261.977 145.175C263.544 143.079 264.327 140.153 264.327 136.396C264.327 133.035 263.525 130.316 261.92 128.239C260.334 126.144 258.219 125.096 255.576 125.096C252.99 125.096 250.903 126.125 249.317 128.183C247.731 130.241 246.938 133.186 246.938 137.019ZM293.948 126.059C293.155 125.926 292.296 125.86 291.371 125.86C287.935 125.86 285.603 127.324 284.376 130.25V152H279.137V121.357H284.234L284.319 124.897C286.037 122.16 288.473 120.791 291.626 120.791C292.646 120.791 293.42 120.923 293.948 121.188V126.059ZM313.94 152.566C309.787 152.566 306.407 151.207 303.802 148.488C301.196 145.751 299.894 142.097 299.894 137.528V136.565C299.894 133.526 300.469 130.816 301.621 128.438C302.792 126.04 304.415 124.171 306.492 122.83C308.588 121.471 310.854 120.791 313.289 120.791C317.273 120.791 320.369 122.103 322.578 124.728C324.787 127.352 325.892 131.109 325.892 135.999V138.18H305.133C305.208 141.201 306.086 143.646 307.767 145.515C309.466 147.365 311.618 148.29 314.224 148.29C316.074 148.29 317.641 147.912 318.925 147.157C320.209 146.402 321.332 145.401 322.295 144.155L325.495 146.647C322.927 150.593 319.076 152.566 313.94 152.566ZM313.289 125.096C311.174 125.096 309.4 125.87 307.965 127.418C306.53 128.947 305.643 131.1 305.303 133.875H320.652V133.479C320.501 130.816 319.784 128.758 318.5 127.305C317.216 125.832 315.479 125.096 313.289 125.096ZM371.285 152C370.983 151.396 370.738 150.32 370.549 148.771C368.113 151.301 365.206 152.566 361.826 152.566C358.805 152.566 356.323 151.717 354.378 150.018C352.452 148.299 351.489 146.128 351.489 143.504C351.489 140.313 352.698 137.84 355.114 136.084C357.55 134.309 360.967 133.422 365.366 133.422H370.464V131.015C370.464 129.183 369.916 127.729 368.821 126.653C367.726 125.558 366.112 125.011 363.979 125.011C362.109 125.011 360.542 125.483 359.277 126.427C358.012 127.371 357.38 128.513 357.38 129.854H352.112C352.112 128.324 352.65 126.852 353.727 125.436C354.822 124.001 356.294 122.868 358.145 122.037C360.014 121.206 362.062 120.791 364.29 120.791C367.821 120.791 370.587 121.678 372.588 123.453C374.589 125.209 375.628 127.635 375.703 130.731V144.835C375.703 147.648 376.062 149.885 376.779 151.547V152H371.285ZM362.591 148.007C364.233 148.007 365.791 147.582 367.264 146.732C368.736 145.883 369.803 144.778 370.464 143.419V137.132H366.357C359.938 137.132 356.729 139.01 356.729 142.768C356.729 144.41 357.276 145.694 358.371 146.619C359.466 147.544 360.873 148.007 362.591 148.007ZM391.872 121.357L392.042 125.209C394.383 122.264 397.442 120.791 401.218 120.791C407.694 120.791 410.96 124.444 411.017 131.751V152H405.777V131.723C405.758 129.514 405.249 127.881 404.248 126.823C403.266 125.766 401.728 125.237 399.632 125.237C397.933 125.237 396.441 125.69 395.157 126.597C393.873 127.503 392.873 128.692 392.155 130.165V152H386.916V121.357H391.872ZM420.644 136.424C420.644 131.723 421.757 127.947 423.985 125.096C426.213 122.226 429.13 120.791 432.736 120.791C436.324 120.791 439.165 122.018 441.261 124.473V108.5H446.5V152H441.686L441.431 148.715C439.335 151.283 436.418 152.566 432.68 152.566C429.13 152.566 426.232 151.113 423.985 148.205C421.757 145.298 420.644 141.503 420.644 136.82V136.424ZM425.883 137.019C425.883 140.493 426.6 143.211 428.035 145.175C429.47 147.138 431.452 148.12 433.982 148.12C437.305 148.12 439.731 146.629 441.261 143.646V129.57C439.694 126.682 437.286 125.237 434.039 125.237C431.471 125.237 429.47 126.229 428.035 128.211C426.6 130.193 425.883 133.129 425.883 137.019ZM502.174 144.778L508.064 121.357H513.304L504.383 152H500.135L492.687 128.777L485.437 152H481.188L472.296 121.357H477.507L483.539 144.297L490.676 121.357H494.896L502.174 144.778ZM520.269 136.396C520.269 133.394 520.854 130.694 522.024 128.296C523.214 125.898 524.856 124.048 526.952 122.745C529.067 121.442 531.474 120.791 534.174 120.791C538.346 120.791 541.716 122.235 544.284 125.124C546.871 128.013 548.164 131.855 548.164 136.65V137.019C548.164 140.002 547.588 142.683 546.437 145.062C545.304 147.422 543.671 149.262 541.537 150.584C539.423 151.906 536.987 152.566 534.23 152.566C530.077 152.566 526.707 151.122 524.12 148.233C521.552 145.345 520.269 141.521 520.269 136.764V136.396ZM525.536 137.019C525.536 140.417 526.32 143.145 527.887 145.203C529.473 147.261 531.587 148.29 534.23 148.29C536.893 148.29 539.007 147.252 540.574 145.175C542.141 143.079 542.925 140.153 542.925 136.396C542.925 133.035 542.122 130.316 540.518 128.239C538.932 126.144 536.817 125.096 534.174 125.096C531.587 125.096 529.501 126.125 527.915 128.183C526.329 130.241 525.536 133.186 525.536 137.019ZM572.546 126.059C571.753 125.926 570.894 125.86 569.969 125.86C566.533 125.86 564.201 127.324 562.974 130.25V152H557.734V121.357H562.832L562.917 124.897C564.635 122.16 567.071 120.791 570.224 120.791C571.243 120.791 572.017 120.923 572.546 121.188V126.059ZM595.2 126.059C594.407 125.926 593.548 125.86 592.623 125.86C589.187 125.86 586.855 127.324 585.628 130.25V152H580.389V121.357H585.486L585.571 124.897C587.289 122.16 589.725 120.791 592.878 120.791C593.897 120.791 594.672 120.923 595.2 121.188V126.059ZM613.578 144.325L620.715 121.357H626.322L614.003 156.729C612.096 161.827 609.066 164.376 604.912 164.376L603.921 164.291L601.967 163.923V159.675L603.383 159.788C605.158 159.788 606.536 159.429 607.518 158.712C608.518 157.994 609.34 156.682 609.981 154.775L611.143 151.66L600.211 121.357H605.932L613.578 144.325ZM657.103 152H651.863V108.5H657.103V152ZM681.229 152.566C677.076 152.566 673.696 151.207 671.091 148.488C668.485 145.751 667.183 142.097 667.183 137.528V136.565C667.183 133.526 667.758 130.816 668.91 128.438C670.081 126.04 671.704 124.171 673.781 122.83C675.877 121.471 678.143 120.791 680.578 120.791C684.562 120.791 687.658 122.103 689.867 124.728C692.076 127.352 693.181 131.109 693.181 135.999V138.18H672.422C672.497 141.201 673.375 143.646 675.056 145.515C676.755 147.365 678.907 148.29 681.513 148.29C683.363 148.29 684.93 147.912 686.214 147.157C687.498 146.402 688.621 145.401 689.584 144.155L692.784 146.647C690.216 150.593 686.365 152.566 681.229 152.566ZM680.578 125.096C678.464 125.096 676.689 125.87 675.254 127.418C673.819 128.947 672.932 131.1 672.592 133.875H687.941V133.479C687.79 130.816 687.073 128.758 685.789 127.305C684.505 125.832 682.768 125.096 680.578 125.096ZM720.111 143.872C720.111 142.456 719.573 141.361 718.497 140.587C717.44 139.794 715.58 139.114 712.918 138.548C710.275 137.981 708.17 137.302 706.603 136.509C705.054 135.716 703.903 134.772 703.147 133.677C702.411 132.582 702.043 131.279 702.043 129.769C702.043 127.257 703.1 125.133 705.215 123.396C707.348 121.66 710.067 120.791 713.371 120.791C716.845 120.791 719.658 121.688 721.811 123.481C723.982 125.275 725.067 127.569 725.067 130.363H719.8C719.8 128.928 719.186 127.692 717.959 126.653C716.751 125.615 715.221 125.096 713.371 125.096C711.464 125.096 709.973 125.511 708.896 126.342C707.82 127.173 707.282 128.258 707.282 129.599C707.282 130.864 707.783 131.817 708.783 132.459C709.784 133.101 711.587 133.715 714.192 134.3C716.817 134.885 718.941 135.584 720.564 136.396C722.188 137.207 723.387 138.189 724.161 139.341C724.954 140.474 725.351 141.861 725.351 143.504C725.351 146.242 724.256 148.441 722.065 150.103C719.875 151.745 717.034 152.566 713.541 152.566C711.087 152.566 708.915 152.132 707.027 151.264C705.139 150.395 703.657 149.187 702.581 147.639C701.524 146.072 700.995 144.382 700.995 142.569H706.234C706.329 144.325 707.027 145.722 708.33 146.761C709.652 147.78 711.389 148.29 713.541 148.29C715.523 148.29 717.109 147.894 718.299 147.101C719.507 146.289 720.111 145.213 720.111 143.872ZM753.018 143.872C753.018 142.456 752.479 141.361 751.403 140.587C750.346 139.794 748.486 139.114 745.824 138.548C743.181 137.981 741.076 137.302 739.509 136.509C737.961 135.716 736.809 134.772 736.054 133.677C735.317 132.582 734.949 131.279 734.949 129.769C734.949 127.257 736.007 125.133 738.121 123.396C740.255 121.66 742.973 120.791 746.277 120.791C749.751 120.791 752.564 121.688 754.717 123.481C756.888 125.275 757.974 127.569 757.974 130.363H752.706C752.706 128.928 752.092 127.692 750.865 126.653C749.657 125.615 748.128 125.096 746.277 125.096C744.37 125.096 742.879 125.511 741.803 126.342C740.727 127.173 740.188 128.258 740.188 129.599C740.188 130.864 740.689 131.817 741.689 132.459C742.69 133.101 744.493 133.715 747.099 134.3C749.723 134.885 751.847 135.584 753.471 136.396C755.094 137.207 756.293 138.189 757.067 139.341C757.86 140.474 758.257 141.861 758.257 143.504C758.257 146.242 757.162 148.441 754.972 150.103C752.782 151.745 749.94 152.566 746.447 152.566C743.993 152.566 741.822 152.132 739.934 151.264C738.046 150.395 736.563 149.187 735.487 147.639C734.43 146.072 733.901 144.382 733.901 142.569H739.141C739.235 144.325 739.934 145.722 741.236 146.761C742.558 147.78 744.295 148.29 746.447 148.29C748.43 148.29 750.016 147.894 751.205 147.101C752.413 146.289 753.018 145.213 753.018 143.872Z" fill="#230B59"/>
</svg>
